<svg xmlns="http://www.w3.org/2000/svg" viewBox="0 0 1200 800" font-family="Inter, system-ui, sans-serif">
  <!-- Background -->
  <rect width="1200" height="800" fill="#FAFAFA" rx="8"/>

  <!-- Title -->
  <text x="40" y="48" font-size="24" font-weight="700" fill="#111827">User Journey — [Module Name]</text>
  <text x="40" y="72" font-size="14" fill="#6B7280">Persona : [Persona Name] | Genere par /ux</text>

  <!-- Separator line -->
  <line x1="40" y1="90" x2="1160" y2="90" stroke="#E5E7EB" stroke-width="1"/>

  <!-- ==================== EPIC 1 ==================== -->
  <g transform="translate(40, 110)">
    <!-- EPIC header -->
    <rect width="340" height="44" fill="#3B82F6" rx="6"/>
    <text x="170" y="28" font-size="16" font-weight="600" fill="white" text-anchor="middle">EPIC 1 — [Nom de l'EPIC]</text>

    <!-- Story 1.1 -->
    <g transform="translate(0, 60)">
      <rect width="340" height="80" fill="white" rx="6" stroke="#E5E7EB" stroke-width="1"/>
      <rect width="4" height="80" fill="#3B82F6" rx="2"/>
      <text x="20" y="24" font-size="12" font-weight="600" fill="#374151">US 1.1</text>
      <text x="20" y="44" font-size="13" fill="#111827">[Titre de la user story]</text>
      <text x="20" y="64" font-size="11" fill="#6B7280">Ecran : [nom-ecran] | Priorite : Haute</text>
    </g>

    <!-- Story 1.2 -->
    <g transform="translate(0, 156)">
      <rect width="340" height="80" fill="white" rx="6" stroke="#E5E7EB" stroke-width="1"/>
      <rect width="4" height="80" fill="#3B82F6" rx="2"/>
      <text x="20" y="24" font-size="12" font-weight="600" fill="#374151">US 1.2</text>
      <text x="20" y="44" font-size="13" fill="#111827">[Titre de la user story]</text>
      <text x="20" y="64" font-size="11" fill="#6B7280">Ecran : [nom-ecran] | Priorite : Moyenne</text>
    </g>

    <!-- Story 1.3 -->
    <g transform="translate(0, 252)">
      <rect width="340" height="80" fill="white" rx="6" stroke="#E5E7EB" stroke-width="1"/>
      <rect width="4" height="80" fill="#3B82F6" rx="2"/>
      <text x="20" y="24" font-size="12" font-weight="600" fill="#374151">US 1.3</text>
      <text x="20" y="44" font-size="13" fill="#111827">[Titre de la user story]</text>
      <text x="20" y="64" font-size="11" fill="#6B7280">Ecran : [nom-ecran] | Priorite : Basse</text>
    </g>
  </g>

  <!-- ==================== EPIC 2 ==================== -->
  <g transform="translate(420, 110)">
    <!-- EPIC header -->
    <rect width="340" height="44" fill="#8B5CF6" rx="6"/>
    <text x="170" y="28" font-size="16" font-weight="600" fill="white" text-anchor="middle">EPIC 2 — [Nom de l'EPIC]</text>

    <!-- Story 2.1 -->
    <g transform="translate(0, 60)">
      <rect width="340" height="80" fill="white" rx="6" stroke="#E5E7EB" stroke-width="1"/>
      <rect width="4" height="80" fill="#8B5CF6" rx="2"/>
      <text x="20" y="24" font-size="12" font-weight="600" fill="#374151">US 2.1</text>
      <text x="20" y="44" font-size="13" fill="#111827">[Titre de la user story]</text>
      <text x="20" y="64" font-size="11" fill="#6B7280">Ecran : [nom-ecran] | Priorite : Haute</text>
    </g>

    <!-- Story 2.2 -->
    <g transform="translate(0, 156)">
      <rect width="340" height="80" fill="white" rx="6" stroke="#E5E7EB" stroke-width="1"/>
      <rect width="4" height="80" fill="#8B5CF6" rx="2"/>
      <text x="20" y="24" font-size="12" font-weight="600" fill="#374151">US 2.2</text>
      <text x="20" y="44" font-size="13" fill="#111827">[Titre de la user story]</text>
      <text x="20" y="64" font-size="11" fill="#6B7280">Ecran : [nom-ecran] | Priorite : Moyenne</text>
    </g>
  </g>

  <!-- ==================== EPIC 3 ==================== -->
  <g transform="translate(800, 110)">
    <!-- EPIC header -->
    <rect width="340" height="44" fill="#10B981" rx="6"/>
    <text x="170" y="28" font-size="16" font-weight="600" fill="white" text-anchor="middle">EPIC 3 — [Nom de l'EPIC]</text>

    <!-- Story 3.1 -->
    <g transform="translate(0, 60)">
      <rect width="340" height="80" fill="white" rx="6" stroke="#E5E7EB" stroke-width="1"/>
      <rect width="4" height="80" fill="#10B981" rx="2"/>
      <text x="20" y="24" font-size="12" font-weight="600" fill="#374151">US 3.1</text>
      <text x="20" y="44" font-size="13" fill="#111827">[Titre de la user story]</text>
      <text x="20" y="64" font-size="11" fill="#6B7280">Ecran : [nom-ecran] | Priorite : Haute</text>
    </g>

    <!-- Story 3.2 -->
    <g transform="translate(0, 156)">
      <rect width="340" height="80" fill="white" rx="6" stroke="#E5E7EB" stroke-width="1"/>
      <rect width="4" height="80" fill="#10B981" rx="2"/>
      <text x="20" y="24" font-size="12" font-weight="600" fill="#374151">US 3.2</text>
      <text x="20" y="44" font-size="13" fill="#111827">[Titre de la user story]</text>
      <text x="20" y="64" font-size="11" fill="#6B7280">Ecran : [nom-ecran] | Priorite : Moyenne</text>
    </g>

    <!-- Story 3.3 -->
    <g transform="translate(0, 252)">
      <rect width="340" height="80" fill="white" rx="6" stroke="#E5E7EB" stroke-width="1"/>
      <rect width="4" height="80" fill="#10B981" rx="2"/>
      <text x="20" y="24" font-size="12" font-weight="600" fill="#374151">US 3.3</text>
      <text x="20" y="44" font-size="13" fill="#111827">[Titre de la user story]</text>
      <text x="20" y="64" font-size="11" fill="#6B7280">Ecran : [nom-ecran] | Priorite : Haute</text>
    </g>
  </g>

  <!-- ==================== Flow arrows between EPICs ==================== -->
  <!-- Arrow EPIC 1 → EPIC 2 -->
  <g transform="translate(390, 132)">
    <line x1="0" y1="0" x2="20" y2="0" stroke="#9CA3AF" stroke-width="2" stroke-dasharray="4,4"/>
    <polygon points="20,-4 28,0 20,4" fill="#9CA3AF"/>
  </g>

  <!-- Arrow EPIC 2 → EPIC 3 -->
  <g transform="translate(770, 132)">
    <line x1="0" y1="0" x2="20" y2="0" stroke="#9CA3AF" stroke-width="2" stroke-dasharray="4,4"/>
    <polygon points="20,-4 28,0 20,4" fill="#9CA3AF"/>
  </g>

  <!-- ==================== Legend ==================== -->
  <g transform="translate(40, 720)">
    <text x="0" y="0" font-size="12" font-weight="600" fill="#374151">Legende :</text>
    <rect x="80" y="-12" width="16" height="16" fill="#3B82F6" rx="3"/>
    <text x="102" y="0" font-size="11" fill="#6B7280">EPIC 1</text>
    <rect x="160" y="-12" width="16" height="16" fill="#8B5CF6" rx="3"/>
    <text x="182" y="0" font-size="11" fill="#6B7280">EPIC 2</text>
    <rect x="240" y="-12" width="16" height="16" fill="#10B981" rx="3"/>
    <text x="262" y="0" font-size="11" fill="#6B7280">EPIC 3</text>

    <text x="360" y="0" font-size="11" fill="#9CA3AF">Priorite : Haute = a faire en premier | Moyenne = iteration 2 | Basse = nice-to-have</text>
  </g>

  <!-- Footer -->
  <text x="40" y="760" font-size="11" fill="#9CA3AF">Template — Remplacer les [placeholders] par le contenu reel. Genere automatiquement par /ux (etape 3.7).</text>
</svg>
